<?xml version="1.0" encoding="utf-8"?>
<!-- Generator: Adobe Illustrator 27.5.0, SVG Export Plug-In . SVG Version: 6.00 Build 0)  -->
<svg version="1.1" xmlns="http://www.w3.org/2000/svg" xmlns:xlink="http://www.w3.org/1999/xlink" x="0px" y="0px"
	 viewBox="0 0 500 500" style="enable-background:new 0 0 500 500;" xml:space="preserve">
<g id="Background_Complete">
	<g>
		<rect y="382.398" style="fill:#EBEBEB;" width="500" height="0.25"/>
		<rect x="416.779" y="398.494" style="fill:#EBEBEB;" width="33.122" height="0.25"/>
		<rect x="322.527" y="401.208" style="fill:#EBEBEB;" width="8.693" height="0.25"/>
		<rect x="396.586" y="389.208" style="fill:#EBEBEB;" width="19.192" height="0.25"/>
		<rect x="52.459" y="390.888" style="fill:#EBEBEB;" width="43.193" height="0.25"/>
		<rect x="104.556" y="390.888" style="fill:#EBEBEB;" width="6.333" height="0.25"/>
		<rect x="131.471" y="395.111" style="fill:#EBEBEB;" width="93.676" height="0.25"/>
		<path style="fill:#EBEBEB;" d="M237.014,337.8H43.915c-3.147,0-5.708-2.561-5.708-5.708V60.66c0-3.147,2.561-5.708,5.708-5.708
			h193.099c3.146,0,5.707,2.561,5.707,5.708v271.432C242.721,335.239,240.16,337.8,237.014,337.8z M43.915,55.203
			c-3.01,0-5.458,2.448-5.458,5.458v271.432c0,3.01,2.448,5.458,5.458,5.458h193.099c3.009,0,5.457-2.448,5.457-5.458V60.66
			c0-3.009-2.448-5.458-5.457-5.458H43.915z"/>
		<path style="fill:#EBEBEB;" d="M453.31,337.8H260.212c-3.147,0-5.707-2.561-5.707-5.708V60.66c0-3.147,2.561-5.708,5.707-5.708
			H453.31c3.148,0,5.708,2.561,5.708,5.708v271.432C459.019,335.239,456.458,337.8,453.31,337.8z M260.212,55.203
			c-3.009,0-5.457,2.448-5.457,5.458v271.432c0,3.01,2.448,5.458,5.457,5.458H453.31c3.01,0,5.458-2.448,5.458-5.458V60.66
			c0-3.009-2.448-5.458-5.458-5.458H260.212z"/>
	</g>
	<g>
		<g>
			
				<rect x="310.807" y="123.518" transform="matrix(-1.836970e-16 1 -1 -1.836970e-16 537.3257 -207.7521)" style="fill:#E6E6E6;" width="123.464" height="82.538"/>
			
				<rect x="308.302" y="123.518" transform="matrix(-1.836970e-16 1 -1 -1.836970e-16 534.8212 -205.2476)" style="fill:#F5F5F5;" width="123.464" height="82.538"/>
			<rect x="339.373" y="113.662" style="fill:#FFFFFF;" width="61.324" height="102.249"/>
			
				<rect x="288.945" y="164.09" transform="matrix(-1.836970e-16 1 -1 -1.836970e-16 504.8563 -175.2825)" style="fill:#E6E6E6;" width="102.249" height="1.393"/>
		</g>
		<g>
			<g>
				
					<rect x="214.82" y="269.513" transform="matrix(-1 2.857037e-05 -2.857037e-05 -1 464.6506 651.9061)" style="fill:#E6E6E6;" width="35.001" height="112.888"/>
				<polygon style="fill:#F0F0F0;" points="221.47,382.401 214.822,382.401 214.821,366.384 228.44,366.383 				"/>
				
					<rect x="401.851" y="269.509" transform="matrix(-1 2.857029e-05 -2.857029e-05 -1 838.7126 651.8936)" style="fill:#E6E6E6;" width="35.001" height="112.888"/>
				
					<rect x="214.82" y="269.511" transform="matrix(-1 1.970619e-05 -1.970619e-05 -1 622.4791 649.5555)" style="fill:#F0F0F0;" width="192.833" height="110.539"/>
				
					<rect x="265.841" y="230.373" transform="matrix(-3.542345e-05 -1 1 -3.542345e-05 -10.3873 567.4959)" style="fill:#E6E6E6;" width="25.407" height="117.136"/>
				
					<rect x="359.331" y="258.48" transform="matrix(-3.542345e-05 -1 1 -3.542345e-05 83.1081 660.9844)" style="fill:#E6E6E6;" width="25.407" height="60.92"/>
				<path style="fill:#F0F0F0;" d="M366.008,279.309l12.052,0c5.235,0,10.24-1.25,13.84-3.458l0,0l-39.733,0.001l0,0
					C355.768,278.059,360.773,279.309,366.008,279.309z"/>
				<path style="fill:#F0F0F0;" d="M243.794,279.31l68.269,0c5.235,0,10.24-1.251,13.84-3.458l0,0l-95.95,0.001l0,0
					C233.554,278.06,238.558,279.311,243.794,279.31z"/>
				
					<rect x="265.842" y="263.059" transform="matrix(-3.542345e-05 -1 1 -3.542345e-05 -43.0718 600.1837)" style="fill:#E6E6E6;" width="25.407" height="117.136"/>
				
					<rect x="359.332" y="291.165" transform="matrix(-3.542345e-05 -1 1 -3.542345e-05 50.4236 693.6722)" style="fill:#E6E6E6;" width="25.407" height="60.92"/>
				<path style="fill:#F0F0F0;" d="M366.009,311.994l12.052,0c5.235,0,10.24-1.25,13.84-3.458v0l-39.733,0.001l0,0
					C355.769,310.744,360.774,311.994,366.009,311.994z"/>
				<path style="fill:#F0F0F0;" d="M243.795,311.996l68.269,0c5.235,0,10.24-1.251,13.84-3.458l0,0l-95.95,0.001l0,0
					C233.555,310.746,238.56,311.996,243.795,311.996z"/>
				
					<rect x="265.843" y="295.744" transform="matrix(-3.542359e-05 -1 1 -3.542359e-05 -75.7562 632.8716)" style="fill:#E6E6E6;" width="25.407" height="117.136"/>
				
					<rect x="359.333" y="323.851" transform="matrix(-3.542359e-05 -1 1 -3.542359e-05 17.7392 726.3602)" style="fill:#E6E6E6;" width="25.407" height="60.92"/>
				<path style="fill:#F0F0F0;" d="M366.01,344.68l12.052,0c5.235,0,10.24-1.251,13.84-3.458l0,0l-39.733,0.001l0,0
					C355.77,343.43,360.775,344.68,366.01,344.68z"/>
				<path style="fill:#F0F0F0;" d="M243.796,344.682l68.269,0c5.235,0,10.24-1.251,13.841-3.458l0,0l-95.95,0.001v0
					C233.556,343.432,238.561,344.682,243.796,344.682z"/>
				<polygon style="fill:#F0F0F0;" points="401.007,382.397 407.655,382.397 407.654,366.38 394.036,366.38 				"/>
			</g>
			<path style="fill:#FAFAFA;" d="M419.225,249.416c0,0-1.015,11.469-39.941,11.471s-39.942-11.468-39.942-11.468L419.225,249.416z"
				/>
			<path style="fill:#EBEBEB;" d="M419.225,258.039c0,0-1.015,11.469-39.941,11.471s-39.942-11.468-39.942-11.468L419.225,258.039z"
				/>
		</g>
		<g>
			<polygon style="fill:#E6E6E6;" points="146.595,382.397 186.609,382.397 174.755,279.469 146.595,279.469 			"/>
			<polygon style="fill:#E0E0E0;" points="79.046,382.398 168.05,382.398 177.443,261.928 88.439,261.928 			"/>
			<polygon style="fill:#F5F5F5;" points="72.645,382.398 165.261,382.398 174.654,261.928 82.038,261.928 			"/>
			<polygon style="fill:#FFFFFF;" points="156.508,372.905 164.42,271.422 90.791,271.422 82.879,372.905 			"/>
		</g>
		<g>
			<rect x="62.225" y="75.688" style="fill:#EBEBEB;" width="226.793" height="165.295"/>
			<rect x="69.989" y="84.434" style="fill:#FAFAFA;" width="211.267" height="147.803"/>
			<polygon style="fill:#FFFFFF;" points="115.453,232.237 93.278,232.237 114.158,84.434 136.333,84.434 			"/>
			<polygon style="fill:#FFFFFF;" points="170.239,232.237 148.064,232.237 168.945,84.434 191.12,84.434 			"/>
			<polygon style="fill:#FFFFFF;" points="240.868,232.237 229.78,232.237 250.661,84.434 261.748,84.434 			"/>
			<polygon style="fill:#FFFFFF;" points="189.74,232.237 178.652,232.237 199.533,84.434 210.62,84.434 			"/>
			<rect x="130.362" y="84.434" style="fill:#EBEBEB;" width="10.45" height="147.803"/>
			
				<rect x="140.812" y="84.434" transform="matrix(-1 -1.224647e-16 1.224647e-16 -1 283.9529 316.6702)" style="fill:#E0E0E0;" width="2.329" height="147.803"/>
			
				<rect x="289.019" y="75.688" transform="matrix(-1 -1.224647e-16 1.224647e-16 -1 579.7096 316.6702)" style="fill:#E0E0E0;" width="1.672" height="165.295"/>
		</g>
	</g>
</g>
<g id="Background_Simple" style="display:none;">
	<g style="display:inline;">
		<g>
			<path style="fill:#407BFF;" d="M303.044,256.637c-53.59,4.649-89.838-59.723-93.638-107.564
				c-3.734-47.017,15.793-102.353-50.799-108.035c-49.837-4.253-96.838,47.942-100.009,97.003
				c-3.845,59.48,62.192,40.627,78.731,85.363c11.689,31.619-22.556,58.334-17.219,89.413
				c11.862,69.075,87.649,11.305,121.069,29.809c22.752,12.597,28.917,38.429,59.777,41.947c27.538,3.139,53.2-12.836,70.014-35.144
				C417.406,287.822,361.637,251.514,303.044,256.637z"/>
		</g>
		<g style="opacity:0.9;">
			<path style="fill:#FFFFFF;" d="M303.044,256.637c-53.59,4.649-89.838-59.723-93.638-107.564
				c-3.734-47.017,15.793-102.353-50.799-108.035c-49.837-4.253-96.838,47.942-100.009,97.003
				c-3.845,59.48,62.192,40.627,78.731,85.363c11.689,31.619-22.556,58.334-17.219,89.413
				c11.862,69.075,87.649,11.305,121.069,29.809c22.752,12.597,28.917,38.429,59.777,41.947c27.538,3.139,53.2-12.836,70.014-35.144
				C417.406,287.822,361.637,251.514,303.044,256.637z"/>
		</g>
	</g>
</g>
<g id="Shadow_1_">
	<ellipse id="_x3C_Path_x3E__156_" style="fill:#F5F5F5;" cx="250" cy="416.238" rx="193.889" ry="11.323"/>
</g>
<g id="Character_1_">
	<g>
		<g>
			<polygon style="fill:#FFC3BD;" points="296.581,387.309 309.256,379.989 316.995,395.484 306.414,401.617 			"/>
			<polygon style="opacity:0.2;" points="296.587,387.312 309.266,379.99 313.598,388.668 302.091,395.326 			"/>
		</g>
		<g>
			<g>
				<path style="fill:#407BFF;" d="M301.138,337.35c8.98-20.803,23.771-44.97,17.711-67.279l-40.356-6.38
					c0,0-8.345,49.857-6.689,70.307c1.719,21.263,26.815,59.005,26.815,59.005l14.454-8.484
					C313.072,384.518,306.788,352.256,301.138,337.35z"/>
			</g>
			<g style="opacity:0.4;">
				<path d="M301.138,337.35c8.98-20.803,23.771-44.97,17.711-67.279l-40.356-6.38c0,0-8.345,49.857-6.689,70.307
					c1.719,21.263,26.815,59.005,26.815,59.005l14.454-8.484C313.072,384.518,306.788,352.256,301.138,337.35z"/>
			</g>
		</g>
		<polygon style="fill:#407BFF;" points="314.53,384.35 298.017,394.099 292.762,387.267 312.22,376.965 		"/>
		<path style="opacity:0.2;" d="M304.093,330.779c4.854-10.53,10.459-21.744,13.628-33.023
			C308.188,299.38,300.11,307.121,304.093,330.779z"/>
		<path style="fill:#263238;" d="M316.583,391.81c-0.248-0.319-0.772-0.287-0.97,0.053c-2.081,3.566-8.076,6.993-10.391,8.222
			c-0.566,0.3-0.946,0.798-1.13,1.365c-1.131,3.482-5.607,8.68-5.607,8.68s0.245,1.157,0.815,2.319
			c0.481,0.981,1.737,1.278,2.585,0.59l18.42-14.964c0.665-0.54,0.71-1.539,0.091-2.132
			C319.351,394.94,317.806,393.381,316.583,391.81z"/>
		<g>
			<polygon style="fill:#FFC3BD;" points="320.387,394.37 335.022,394.51 333.694,411.788 321.464,411.69 			"/>
			<path style="fill:#263238;" d="M334.974,409.133c0.043-0.405-0.35-0.71-0.732-0.57c-3.987,1.461-10.712,0.343-13.241-0.162
				c-0.618-0.124-1.239,0.023-1.767,0.348c-3.243,1.991-8.978,3.206-8.978,3.206s-0.586,0.982-0.985,2.186
				c-0.361,1.089,0.451,2.216,1.599,2.215l22.562-0.011c0.809,0,1.459-0.673,1.424-1.481
				C334.794,413.43,334.757,411.18,334.974,409.133z"/>
			<polygon style="opacity:0.2;" points="320.391,394.376 335.031,394.515 334.284,404.191 320.991,404.075 			"/>
		</g>
		<g>
			<path style="fill:#407BFF;" d="M344.286,336.16c4.56-21.734,12.774-49.985,6.989-61.199l-47.248-7.317
				c0,0,5.876,44.958,7.427,65.902c1.61,21.776,7.981,66.762,7.981,66.762l15.838,0.042
				C335.273,400.35,346.298,362.08,344.286,336.16z"/>
			<path style="opacity:0.4;" d="M344.286,336.16c4.56-21.734,12.774-49.985,6.989-61.199l-47.248-7.317
				c0,0,5.876,44.958,7.427,65.902c1.61,21.776,7.981,66.762,7.981,66.762l15.838,0.042
				C335.273,400.35,346.298,362.08,344.286,336.16z"/>
		</g>
		<polygon style="fill:#407BFF;" points="337.002,400.947 317.946,400.947 317.652,393.014 338.636,393.354 		"/>
		<g>
			<path style="fill:#FFC3BD;" d="M316.504,199.014l-1.205,0.968l-1.121,0.875c-0.745,0.572-1.501,1.114-2.254,1.66
				c-1.503,1.093-3.052,2.108-4.607,3.121c-3.135,1.987-6.351,3.882-9.749,5.563c-3.383,1.708-6.916,3.251-10.694,4.522
				c-3.764,1.297-7.802,2.293-12.251,2.721l-0.817,0.079c-2.148,0.207-4.196-0.446-5.783-1.662
				c-3.309-2.545-5.344-5.658-6.678-8.504c-0.69-1.434-1.21-2.864-1.605-4.259c-0.398-1.395-0.737-2.761-0.958-4.109
				c-0.216-1.351-0.373-2.68-0.48-3.99c-0.096-1.311-0.112-2.611-0.109-3.894c0.013-1.285,0.097-2.56,0.208-3.827l0.228-1.904
				l0.333-1.996c0.472-2.834,3.152-4.747,5.986-4.275c1.811,0.302,3.247,1.506,3.923,3.076l0.414,0.983
				c0.156,0.37,0.337,0.935,0.513,1.414l0.524,1.499c0.34,0.998,0.715,1.982,1.083,2.947c0.744,1.927,1.526,3.777,2.393,5.438
				c0.825,1.666,1.793,3.14,2.689,4.212c0.894,1.114,1.813,1.612,2.229,1.704l-6.6-1.583c2.378-0.535,4.995-1.487,7.661-2.651
				c1.33-0.578,2.673-1.25,4.012-1.949c1.349-0.678,2.699-1.425,4.042-2.198c2.68-1.564,5.375-3.221,8.021-4.982
				c1.332-0.868,2.637-1.783,3.948-2.677l1.938-1.361l1.793-1.278l0.405-0.289c4.685-3.338,11.19-2.247,14.528,2.439
				C321.682,189.36,320.763,195.581,316.504,199.014z"/>
		</g>
		<path style="fill:#FFC3BD;" d="M268.848,183.941l-5.167,3.371c-6.332,1.389-6.709-7.06-6.709-7.06l-1.823-3.99
			c-0.618-1.352-0.021-3.041,1.41-3.99l3.594-2.384c1.638-1.087,3.766-0.819,4.717,0.594l2.138,3.175
			c0.622,0.924,1.006,1.987,1.117,3.095L268.848,183.941z"/>
		<g>
			<path style="fill:#263238;" d="M316.161,178.008c-9.9-0.59-30.246,12.178-30.246,12.178c-2.344,7.461,1.74,21.605,7.703,25.102
				c0,0,15.148-6.508,22.277-12.835C324.511,194.805,336.187,179.201,316.161,178.008z"/>
		</g>
		<path style="fill:#263238;" d="M317.078,178.025c12.123,0.604,28.034,3.22,40.129,6.869c7.549,2.277,12.253,7.924,8.871,23.584
			c-6.862,31.767-6.298,57.722-12.164,68.617c0,0-68.688,4.243-77.872-11.6c1.861-39.222,20.663-69.113,29.047-81.471
			C307.77,180.073,312.308,177.787,317.078,178.025z"/>
		<path style="fill:#FFC3BD;" d="M320.969,182.368c1.774-1.27,3.243-0.143,4.342-2.297c0.585-1.583,0.613-3.33-0.038-5.355
			l19.837-7.043c-1.403,6.68-2.498,11.957,0.071,15.095c0.091,5.155-11.817,9.865-21.882,7.953
			C314.44,189.037,318.417,184.195,320.969,182.368z"/>
		<path style="opacity:0.2;" d="M325.453,175.329l15.015-1.377c-4.54,5.181-11.607,7.307-14.926,5.37
			C325.844,178.102,325.832,176.792,325.453,175.329z"/>
		<path style="fill:#263238;" d="M323.998,156.528c-0.792-7.688,6.7-17.417,12.963-14.062
			C343.223,145.821,323.998,156.528,323.998,156.528z"/>
		<path style="fill:#FFC3BD;" d="M350.405,160.915c-3.969,8.759-6.853,14.622-13.501,16.428
			c-13.209,3.589-17.556-3.668-16.279-13.463c1.149-8.816,7.447-21.659,17.573-21.801
			C348.174,141.941,354.375,152.156,350.405,160.915z"/>
		<path style="fill:#263238;" d="M348.116,167.935c-4.529-0.657-7.842-8.834-3.103-13.112c4.739-4.277,3.103-8.387-0.336-9.603
			c-3.439-1.216-9.687-0.335-11.113-3.397c-1.426-3.061,8.094-5.284,13.629-1.761s5.242,1.384,5.242,1.384s1.154,1.803-1.037,2.181
			c4.35,2.894,9.173,9.855,4.686,12.706C361.745,159.52,352.98,167.082,348.116,167.935z"/>
		<path style="fill:#263238;" d="M354.686,155.85c3.019,0.986,4.305-1.299,4.305-1.299S359.942,158.275,354.686,155.85z"/>
		<path style="fill:#263238;" d="M332.494,165.129c0.402-0.173,0.811-0.39,1.222-0.661c0.111-0.073,0.134-0.221,0.05-0.33
			c-0.083-0.108-0.237-0.138-0.352-0.064c-3,1.983-5.976,0.854-6.006,0.842c-0.131-0.052-0.275,0.005-0.322,0.126
			c-0.048,0.121,0.019,0.26,0.149,0.311C327.351,165.399,329.746,166.31,332.494,165.129z"/>
		<path style="opacity:0.2;" d="M337.819,158.232c0,0,1.953-0.433,3.258,0.606C339.244,158.863,337.819,158.232,337.819,158.232z"/>
		<path style="opacity:0.2;" d="M337.727,159.018c0,0,1.825-0.016,2.723,1.269C338.828,159.93,337.727,159.018,337.727,159.018z"/>
		<path style="fill:#FFC3BD;" d="M349.855,170.399c-1.909,1.743-4.449,2.432-6.575,2.289c-3.198-0.215-2.783-2.733-1.025-5.202
			c1.582-2.222,4.176-5.397,6.967-3.964C351.973,164.934,352.038,168.406,349.855,170.399z"/>
		<path style="fill:#263238;" d="M335.965,157.947c-0.278,0.731-0.891,1.172-1.367,0.985c-0.477-0.186-0.637-0.93-0.359-1.661
			c0.278-0.731,0.891-1.172,1.367-0.985C336.083,156.473,336.244,157.217,335.965,157.947z"/>
		<path style="fill:#263238;" d="M327.514,154.658c-0.278,0.731-0.891,1.172-1.367,0.985c-0.477-0.186-0.637-0.93-0.359-1.661
			c0.278-0.731,0.89-1.172,1.367-0.985C327.631,153.184,327.792,153.927,327.514,154.658z"/>
		<path style="fill:#ED847E;" d="M330.153,155.85l-2.13,6.399c0,0-2.215,0.769-4.24-1.41
			C325.902,157.549,330.153,155.85,330.153,155.85z"/>
		<path style="fill:#263238;" d="M339.847,153.694c0.072,0.025,0.152,0.031,0.232,0.016c0.248-0.047,0.41-0.289,0.361-0.539
			c-0.487-2.506-2.439-3.338-2.522-3.373c-0.235-0.097-0.502,0.015-0.596,0.251c-0.094,0.235,0.018,0.503,0.251,0.601l0,0
			c0.064,0.027,1.579,0.693,1.968,2.692C339.575,153.512,339.696,153.642,339.847,153.694z"/>
		<path style="fill:#263238;" d="M324.341,151.242c0.144,0.039,0.303,0.007,0.422-0.099c1.507-1.345,3.111-0.938,3.179-0.919
			c0.245,0.065,0.495-0.079,0.559-0.324c0.064-0.245-0.08-0.496-0.324-0.564c-0.089-0.022-2.138-0.568-4.027,1.117
			c-0.189,0.168-0.204,0.459-0.035,0.65C324.178,151.172,324.257,151.219,324.341,151.242z"/>
		<g>
			<g>
				<path style="fill:#407BFF;" d="M218.442,208.99l-4.343,11.846c-0.79,2.154-2.543,3.625-4.712,3.953l-57.664,8.735
					c-3.721,0.564-5.922,4.382-4.915,8.528l20.19,83.153c1.007,4.146,4.839,7.05,8.561,6.486l137.274-20.794
					c3.721-0.564,5.922-4.382,4.915-8.528L293.42,202.176c-1.007-4.146-4.839-7.05-8.561-6.486l-61.706,9.347
					C220.985,205.365,219.231,206.837,218.442,208.99z"/>
				<path style="opacity:0.3;" d="M218.442,208.99l-4.343,11.846c-0.79,2.154-2.543,3.625-4.712,3.953l-57.664,8.735
					c-3.721,0.564-5.922,4.382-4.915,8.528l20.19,83.153c1.007,4.146,4.839,7.05,8.561,6.486l137.274-20.794
					c3.721-0.564,5.922-4.382,4.915-8.528L293.42,202.176c-1.007-4.146-4.839-7.05-8.561-6.486l-61.706,9.347
					C220.985,205.365,219.231,206.837,218.442,208.99z"/>
			</g>
			<path style="fill:#407BFF;" d="M188.851,87.414c1.367,0,2.716,0.073,4.046,0.211c8.845-12.222,23.218-20.181,39.458-20.181
				c20.63,0,38.249,12.837,45.341,30.953c15.779,2.69,27.793,16.422,27.793,32.967c0,18.476-14.978,33.454-33.454,33.454h-83.185
				c-21.375,0-38.702-17.328-38.702-38.702C150.149,104.741,167.476,87.414,188.851,87.414z"/>
			<g>
				<polygon style="fill:#407BFF;" points="192.437,151.285 192.437,247.775 263.202,247.775 263.202,172.289 242.198,151.285 				
					"/>
				<polygon style="opacity:0.6;fill:#FFFFFF;" points="192.437,151.285 192.437,247.775 263.202,247.775 263.202,172.289 
					242.198,151.285 				"/>
				<polygon style="opacity:0.4;fill:#407BFF;" points="242.198,172.289 242.198,151.285 263.202,172.289 				"/>
			</g>
			
				<rect x="189.752" y="331.708" transform="matrix(0.9888 -0.1493 0.1493 0.9888 -47.4579 32.443)" style="fill:#407BFF;" width="5.07" height="1.006"/>
			
				<rect x="200.31" y="329.151" transform="matrix(0.9888 -0.1494 0.1494 0.9888 -46.9114 34.9563)" style="fill:#407BFF;" width="17.708" height="1.006"/>
			<path style="fill:#407BFF;" d="M243.677,218.468l-6.529,10.896c-1.187,1.981-3.176,3.35-5.345,3.679l-57.664,8.735
				c-3.721,0.564-6.602,4.086-6.435,7.867l3.35,75.836c0.167,3.781,3.319,6.39,7.04,5.826l137.275-20.794
				c3.721-0.564,6.602-4.086,6.435-7.867l-4.037-91.377c-0.167-3.781-3.319-6.39-7.04-5.826l-61.706,9.347
				C246.854,215.118,244.864,216.487,243.677,218.468z"/>
			<path style="fill:#FFFFFF;" d="M245.686,137.292c-0.318,0-0.635-0.121-0.878-0.364c-0.485-0.485-0.485-1.271,0-1.756
				c9.367-9.368,9.367-24.61,0-33.978c-4.538-4.538-10.572-7.037-16.989-7.037c-6.417,0-12.451,2.499-16.989,7.037
				c-4.538,4.538-7.037,10.571-7.037,16.989c0,6.418,2.499,12.451,7.037,16.989c0.485,0.485,0.485,1.271,0,1.756
				c-0.484,0.484-1.271,0.484-1.755,0c-5.007-5.007-7.765-11.664-7.765-18.745c0-7.081,2.757-13.738,7.765-18.745
				c5.007-5.007,11.664-7.764,18.744-7.764c7.081,0,13.738,2.757,18.745,7.764c10.336,10.336,10.336,27.154,0,37.49
				C246.321,137.171,246.004,137.292,245.686,137.292z"/>
			<path style="fill:#FFFFFF;" d="M238.452,144.723v-27.672c0-2.494-2.021-4.515-4.515-4.515h-12.237
				c-2.493,0-4.515,2.021-4.515,4.515v27.672h-4.602l15.235,13.124l15.236-13.124H238.452z"/>
		</g>
		<g>
			<path style="fill:#FFC3BD;" d="M361.8,213.465l-0.607,1.374l-0.574,1.254c-0.385,0.826-0.795,1.629-1.199,2.435
				c-0.806,1.61-1.685,3.174-2.57,4.739c-1.805,3.108-3.727,6.17-5.886,9.134c-1.079,1.484-2.185,2.958-3.362,4.41
				c-1.198,1.438-2.427,2.863-3.751,4.258c-2.621,2.803-5.587,5.471-9.094,7.878l-0.689,0.473c-0.35,0.24-0.745,0.443-1.124,0.591
				c-4.158,1.594-7.619,1.87-10.941,2.064c-3.298,0.151-6.414-0.074-9.452-0.379c-3.034-0.358-5.99-0.848-8.896-1.498
				c-2.927-0.665-5.714-1.398-8.649-2.432c-2.738-0.964-4.177-3.966-3.212-6.705c0.708-2.009,2.513-3.319,4.505-3.492l0.216-0.017
				l8.107-0.694c2.695-0.241,5.355-0.501,7.938-0.846c1.289-0.174,2.557-0.341,3.795-0.554c1.231-0.222,2.428-0.47,3.57-0.715
				c2.236-0.51,4.362-1.273,5.369-1.925l-1.813,1.063c1.816-1.622,3.62-3.666,5.381-5.886c0.878-1.11,1.726-2.298,2.559-3.503
				c0.851-1.196,1.672-2.446,2.478-3.712c1.594-2.552,3.171-5.174,4.653-7.87c0.757-1.339,1.469-2.706,2.198-4.056l2.03-3.918
				l0.244-0.471c2.646-5.107,8.933-7.103,14.04-4.456C361.971,202.548,363.992,208.477,361.8,213.465z"/>
			<g>
				<path style="fill:#263238;" d="M364.984,195.791c4.809,17.28-7.401,34.456-7.401,34.456c-6.475,1.854-23.521-4.79-27.14-11.148
					c0,0,5.942-16.338,13.009-25.024C349.994,186.032,362.166,185.664,364.984,195.791z"/>
			</g>
		</g>
		<path style="fill:#FFC3BD;" d="M298.314,237.962l0.952,6.095c-1.333,6.343-9.192,3.218-9.192,3.218l-4.386,0.024
			c-1.487,0.008-2.781-1.229-3.059-2.924l-0.698-4.256c-0.319-1.94,0.799-3.77,2.478-4.058l3.772-0.646
			c1.098-0.188,2.225-0.101,3.281,0.252L298.314,237.962z"/>
	</g>
</g>
</svg>
