<svg fill="none" height="32" viewBox="0 0 32 32" width="32" xmlns="http://www.w3.org/2000/svg"><g fill="#fff"><ellipse cx="15.8215" cy="28.8696" rx="2.43478" ry="2.43478"/><path d="m20.6304 2.43161c-1.7892-.88238-3.8-1.21435-5.7779-.95395-1.978.2604-3.8343 1.10148-5.33421 2.41689-.97381.85401-1.76901 1.88305-2.34836 3.02723-.52066 1.02829.15843 2.18767 1.27175 2.48599l.67194.18005c1.11328.29831 2.23118-.40653 2.93958-1.3158.2012-.25835.4273-.49837.6758-.71634.7758-.68038 1.736-1.11542 2.7591-1.25011 1.023-.13469 2.0631.03702 2.9886.49342.9255.45639 1.6948 1.17698 2.2108 2.07064.5159.89365.7553 1.92027.6878 2.94997-.0675 1.0296-.4388 2.0162-1.067 2.8349-.6282.8186-1.485 1.4326-2.4621 1.7643-.8029.2769-1.0189.2769-1.8464.2769h-.6956c-1.1526 0-2.087.9344-2.087 2.087v3.4782c0 1.1526.9344 2.087 2.087 2.087h.6957c1.1525 0 2.0869-.9344 2.0869-2.087 0-.5106.37-.9425.8605-1.0846.1501-.0434.3045-.0922.4641-.1463 1.8892-.6413 3.5457-1.8284 4.7602-3.4111 1.2145-1.5828 1.9324-3.4901 2.0628-5.4809.1305-1.9907-.3323-3.97543-1.3298-5.70316s-2.4849-3.12086-4.2742-4.00323z"/></g></svg>