<svg xmlns="http://www.w3.org/2000/svg" shape-rendering="geometricPrecision" text-rendering="geometricPrecision" image-rendering="optimizeQuality" fill-rule="evenodd" clip-rule="evenodd" viewBox="0 0 512 512"><path fill="#999" fill-rule="nonzero" d="M256 0c70.684 0 134.69 28.664 181.013 74.987C483.337 121.311 512 185.316 512 256c0 70.684-28.663 134.689-74.987 181.013C390.69 483.336 326.684 512 256 512c-70.676 0-134.689-28.664-181.013-74.987C28.664 390.689 0 326.676 0 256c0-70.684 28.664-134.689 74.987-181.013C121.311 28.664 185.316 0 256 0z"/><path fill="#fff" fill-rule="nonzero" d="M256.002 19.596c65.277 0 124.382 26.467 167.162 69.243 42.776 42.78 69.242 101.884 69.242 167.162s-26.466 124.383-69.245 167.16c-42.777 42.779-101.882 69.245-167.159 69.245-65.278 0-124.383-26.466-167.163-69.242-42.776-42.78-69.243-101.885-69.243-167.163S46.063 131.619 88.839 88.839c42.78-42.776 101.885-69.243 167.163-69.243z"/><path fill="#006C35" fill-rule="nonzero" d="M256.002 39.594c119.517 0 216.407 96.887 216.407 216.407 0 119.518-96.89 216.407-216.407 216.407-119.521 0-216.408-96.889-216.408-216.407 0-119.52 96.887-216.407 216.408-216.407z"/><path fill="#fff" fill-rule="nonzero" d="M338.758 337.206c-1.068 0-3.958 2.952-3.958 4.021 0 .817 1.445 2.451 2.639 3.393v2.452H133.845c7.226 7.226 17.971 7.414 39.588 7.414h164.006v2.452c-1.256 1.005-2.639 2.576-2.639 3.393 0 1.068 2.89 4.021 3.958 4.021.88 0 2.452-1.57 3.457-2.89h9.049c.581.942 1.959 1.558 3.487 1.558 1.529 0 2.906-.616 3.487-1.558h10.746c1.32 1.508 3.079 1.57 4.147 1.57 3.079 0 5.028-1.32 5.028-8.546 0-6.787-3.017-7.414-10.432-7.414h-27.648v-2.452c1.194-.942 2.638-2.576 2.638-3.393 0-1.068-2.89-4.021-3.959-4.021zm1.321 17.28h27.648c-.503 1.885-.503 3.331 0 4.714h-9.488c-.582-.943-1.959-1.559-3.488-1.559-1.528 0-2.906.616-3.487 1.558l-9.048.001c-.503-.691-1.446-1.76-2.137-2.262v-2.452zM363.316 250.688c7.64-2.926 15.253-5.894 22.895-8.814-.403 1.079-.933 2.314-2.29 2.859-7.044 2.689-14.075 5.399-21.118 8.086-.464.185-.925.387-1.431.485.465-.74.902-1.488 1.349-2.232.096-.208.364-.29.594-.384h.001zm-23.791-10.173c1.646.997 3.141 2.135 4.19 3.363 1.941 2.366 2.442 5.433 1.237 8.094-.105.219-.326.381-.514.556.373-1.473.483-3.033-.101-4.48-.802-2.103-2.615-3.868-5.036-4.901.041-.919.165-1.847.224-2.632zm-63.029-1.28c1.024-.686 2.446-.752 3.727-.75 1.287.071 2.648.116 3.782.659.537.494.027 1.079-.523 1.389-2.231 1.274-4.688 2.379-6.498 4.052-.491.432-.237 1.106.384 1.359.939.372 2.025.39 3.057.369 2.449-.105 4.802-.839 6.852-1.884.571-.288 1.083-.646 1.673-.913a25.477 25.477 0 01-4.251 3.292c-1.32.785-2.809 1.466-4.461 1.67-1.3.087-2.699.038-3.822-.544-1.251-.585-1.837-1.897-1.374-2.98.28-.608.797-1.123 1.341-1.598 1.405-1.177 3.122-2.078 4.835-2.947-1.161-.044-2.337-.093-3.491.018-.754.06-1.26.508-1.795.871-.161-.706-.165-1.544.564-2.063zm-45.972-1.773c1.019-.394 2.424-.337 3.227.35.672.629.744 1.495.694 2.283-.538.568-1.158 1.09-1.61 1.709-.944.138-1.936.017-2.859.236-.464.214-1.071.344-1.294.774-.292.556-.156 1.174-.033 1.749.48 2.009 1.367 3.983 1.321 6.052-.051.726-.112 1.479-.546 2.136-.101-1.151-.613-2.238-.984-3.345-.701-2.017-1.256-4.086-1.338-6.182-.092-.807.494-1.502 1.086-2.11.874-.967 2.441-1.25 3.832-1.459-.362-.264-.771-.568-1.306-.509-.748.085-1.254.581-1.665 1.037-.074-1.007.274-2.197 1.475-2.721zm66.668-.39a.339.339 0 01.263-.062c-.396.359-.613.81-.917 1.217-.866 1.295-1.868 2.67-1.637 4.194.024.716.533 1.64 1.589 1.635.516-.204.649-.725.908-1.1-.033 1.116-.24 2.472-1.565 3.11-1.1-.14-1.926-.912-1.97-1.785-.224-2.637 1.171-5.237 3.329-7.209zM99.859 222.216c.63-.889 1.222-1.857 2.325-2.445-1.338 2.137-2.73 4.303-3.314 6.663-.194.902-.292 1.944.445 2.72.573.486 1.492.575 2.277.424 1.189-.208 1.743-1.193 2.234-1.974.377.583-.013 1.212-.186 1.794-.493 1.23-1.081 2.563-2.442 3.362-1.045.633-2.543.38-3.549-.177-1.324-.819-1.355-2.306-1.122-3.509.523-2.435 1.876-4.695 3.332-6.858zm96.992-9.533c.388-.584 1.149-1.277 2.084-.985 1.123.268 2.459.973 2.28 2.03-.301.36-.687.669-1.028 1.004-.364-.545-.771-1.242-1.623-1.358-1.11.288-1.774 1.169-2.124 2.008-.737 1.832-.901 3.768-1.106 5.672-.269.113-.537.225-.811.327.007-1.753-.474-3.614-1.961-4.973-.337-.45-1.085-.224-1.591-.441-.944-.268-1.287-1.083-1.515-1.78-.114-.471-.318-1.038.08-1.458.835-.189 1.49.39 2.086.756 1.534 1.154 2.594 2.639 3.462 4.151.366-1.688.752-3.42 1.767-4.954v.001zm159.592-4.626c1.161-.317 2.382.099 3.332.629 1.586.928 2.823 2.188 3.779 3.542.51.785 1.092 1.645.887 2.557-.122.615-.183 1.274-.647 1.799-.514.502-1.479.451-2.127.152-.738-.332-1.442-.709-2.215-.99-1.045 2.247-3.247 4.017-5.634 5.42-1.616.979-3.388 1.783-5.183 2.535-1.108.473-2.334.726-3.521 1.033-1.186.266-2.393.617-3.646.52.79-.037 1.415-.442 2.081-.731 3.472-1.598 6.873-3.316 9.962-5.353 1.641-1.124 3.317-2.294 4.423-3.791a34.554 34.554 0 00-2.151-.304c-.58-1.336-.586-2.97.667-4.075-.625-.38-.697-1.068-.802-1.64-.089-.499.122-1.131.794-1.303h.001zm3.113 3.309c.236.989.307 1.998.326 3.004.978.111 1.951.418 2.948.33.509-.059.489-.588.207-.839-.926-1.01-2.213-1.771-3.481-2.495zm-3.313 1.614c.5.733 1.635.92 2.561 1.155.191-.473.436-.968.343-1.47-.335-.518-.79-1.195-1.631-1.192-.727.295-1.015.939-1.273 1.507zm-64.216-6.318c.577-.59 1.553-.878 2.474-.9.64-.005.95.539 1.096.953.279.977.328 2.041-.274 2.952.313.179.627.361.946.539a17.51 17.51 0 00-.158 1.884c-.636-.27-1.125-.699-1.669-1.06a15.76 15.76 0 01-7.256 5.449c-1.631.65-3.498.935-5.314.756 3.439-.973 6.78-2.377 9.275-4.531a13.74 13.74 0 002.222-2.428c-.484-.408-1.062-.757-1.439-1.234-.301-.764-.522-1.677.097-2.38zm.944.754c.249.558.727 1.019 1.224 1.453.209-.484.483-1.009.177-1.506-.47-.072-.942-.032-1.401.053zm-192.912 6.051c6.902-3.429 13.832-6.827 20.747-10.238-.198 1.191-.714 2.569-2.164 3.165-6.401 3.14-12.818 6.262-19.209 9.413a3.426 3.426 0 01-.519.17c.407-.83.717-1.689 1.145-2.51zm144.491-18.114a12.644 12.644 0 011.802-1.71c-.495.889-.2 1.859.031 2.767.26.994.613 1.97 1.006 2.937.276.728 1.333.985 2.178 1.128.506.128 1.127-.171.931-.628a22.215 22.215 0 00-1.744-3.438c.242-.746.516-1.484.748-2.231.32 0 .644.003.969.006.28 1.381 1.111 2.634 1.877 3.875.002 1.342-.099 2.741-.701 4.014-.401.902-1.745 1.182-2.83 1.11-1.441-.22-2.396-1.203-3.241-2.068-.421 1.134-1.611 2.014-3.019 2.369-1.192.346-2.566-.157-3.205-.988-.701-.922-.834-2.034-.802-3.089.063-1.507.432-3.265 2.142-4.17l.479.001c-.076.028-.232.081-.308.108-1.039 1.504-1.104 3.394-.181 4.943.269.49.948.842 1.635.728.857-.164 1.534-.646 2.119-1.143.021-1.508.013-3.017.114-4.521zm-136.17-3.149c1.549-.265 2.96.501 4.061 1.271 1.476 1.14 2.705 2.499 3.484 4.015.236.458.34.958.253 1.45-.113.654-.177 1.371-.702 1.914-.617.451-1.59.353-2.245.006-.651-.34-1.33-.646-2.038-.905-1.062 2.225-3.232 3.983-5.598 5.387-1.858 1.112-3.883 2.045-5.977 2.848-1.5.451-3.034.838-4.591 1.145-.62.134-1.265.12-1.901.106.373-.069.771-.091 1.112-.244 3.407-1.522 6.73-3.174 9.826-5.069 2.092-1.332 4.169-2.744 5.653-4.534-.721-.129-1.446-.251-2.183-.307-.58-1.339-.598-2.968.626-4.092-.59-.408-.675-1.08-.782-1.655-.112-.558.248-1.219 1.002-1.336zm2.892 3.333c.275.998.301 2.024.353 3.04 1.031.092 2.07.479 3.109.277.482-.214.143-.703-.108-.953-.95-.923-2.153-1.66-3.354-2.364zm-2.533.429c-.339.397-.733.855-.68 1.356.6.597 1.612.846 2.528.976.09-.286.196-.566.267-.853.251-.585-.32-1.109-.777-1.516-.341-.326-1.043-.337-1.338.037zm114.926-4.914c1.011.667 1.626 1.626 2.309 2.501 1.749 2.435 3.24 4.98 4.683 7.536 3.165 5.486 5.247 11.343 6.394 17.299.323 1.846.654 3.703.588 5.573.192 3.713.75 7.508 2.708 10.925 1.441 2.321 3.892 4.381 5.811 5.887.915.5 1.302.382 1.543.178.149-.127.09-1.755.394-2.52.434-1.256 1.428-2.325 2.485-3.3 1.182-1.024 2.52-1.964 4.099-2.582 3.164-1.27 6.443-2.35 9.755-3.35 2.494-.731 5.029-1.381 7.621-1.852-11.126.062-22.253.134-33.381.235a839.564 839.564 0 011.694-6.411c1.18-1.226 2.665-2.233 4.131-3.235 6.379-4.165 13.745-7.248 21.205-10.008-.874-1.083-2.088-2.092-2.28-3.422-.451-1.867.529-3.714 1.763-5.268.73-.882 1.413-1.846 2.538-2.453 1.129-.619 2.656-.66 3.891-.22 4.136 1.469 8.403 4.056 11.557 6.379.316.253.722.471.919.801-.742 1.902-1.526 3.797-2.245 5.706-3.289.582-6.596 1.138-9.801 1.973.326 1.607.906 3.36.034 4.917-.304-.033-.717-.075-.769-.37-.123-1.351-.946-2.58-1.791-3.73-4.09 1.274-8.171 2.592-12.027 4.267-3.108 1.366-6.26 2.848-8.563 5.034 17.107.004 34.217.004 51.325 0-1.097 1.906-2.269 3.787-3.386 5.686-11.202 2.159-22.382 4.468-33.248 7.537-4.56 1.323-9.117 2.777-13.162 4.934-.419.253-.66.72-.356 1.099.628.763 1.774 1.078 2.735 1.513 2.09.916 4.407 1.415 6.683 1.949 1.631.381 3.262.761 4.891 1.146-.135 2.285-.158 4.576-.333 6.857-1.334 0-2.695-.187-4.037-.28-2.629-.247-5.298-.413-7.833-1.051-3.452-.865-6.563-2.506-8.999-4.617-2.674-2.277-4.608-5.041-5.994-7.937-1.892-4.014-2.946-8.93-3.312-13.193-.167-.018-.208.831-.37.817a32.997 32.997 0 01-1.824 5.361c-.151.431-.551.759-.903 1.093a101.983 101.983 0 01-8.102 6.68c-2.907 2.144-5.937 4.195-9.211 5.981-3.443 1.869-7.168 3.55-11.287 4.256-2.213.363-4.73.432-6.669-.628-2.166-1.172-3.223-3.208-3.793-5.16a188.476 188.476 0 01-5.996 3.476c-1.835.974-3.663 2.004-5.764 2.592-5.254 1.544-10.72 2.556-16.158 3.599-3.9.699-7.802 1.399-11.729 1.997 3.638-1.634 7.332-3.194 10.954-4.85 9.827-4.449 19.508-9.123 28.749-14.304 1.26-4.776 3.294-9.58 7.236-13.412l.2-.044c-.314.528-.465 1.108-.788 1.634-2.375 3.292-4.064 6.93-4.662 10.7 4.207-2.421 8.312-4.958 12.176-7.717 2.387-1.693 4.629-3.512 6.677-5.464.564-.552 1.329-1.027 1.542-1.753.094-.472.041-.764-.298-1.743-2.389-5.224-5.779-11.741-8.031-16.334.771-2.321 1.485-4.654 2.263-6.973 1.038.541 1.714 1.39 2.452 2.158 1.507 1.751 2.925 3.553 4.199 5.418.712 1.026.847 2.217 1.108 3.35-1.022-.728-1.734-1.714-2.869-2.336.05.166.118.327.207.485 1.795 2.803 3.023 5.822 3.819 8.897.491 1.827.704 3.701.567 5.568-.103 2.024-.451 4.098-1.625 5.924-1.043 1.622-2.446 3.075-3.912 4.47-4.968 4.613-10.79 8.589-16.703 12.417.007.223.327.283.517.405 2.117 1.045 4.764.94 7.128.614 1.782-.326 3.616-.575 5.247-1.265 4.281-1.772 8.014-4.243 11.617-6.761 4.724-3.402 9.174-7.039 13.419-10.813a643.487 643.487 0 00-4.392-11.913c-.814-2.069-1.571-4.156-2.546-6.182-1.616-2.671-3.169-5.375-4.578-8.117.569-2.095 1.285-4.167 1.892-6.257l.002.001zm43.054 10.775c-.518.162-.952.614-.735 1.068.081.343.554.462.804.717a37.29 37.29 0 012.921 2.983c2.252-.648 4.538-1.21 6.81-1.804-1.691-1.279-3.57-2.495-5.828-3.074a7.088 7.088 0 00-3.972.11zm49.812-2.753c6.935-3.398 13.83-6.842 20.774-10.226-.196 1.056-.579 2.213-1.675 2.908-6.722 3.318-13.483 6.591-20.204 9.914.287-.885.74-1.73 1.105-2.596zm-34.983-12.807c.641-.293 1.582-.273 2.016.263.597.714.757 1.648.434 2.467-.612 1.625-1.961 3.006-3.432 4.208-1.789 1.383-3.931 2.657-6.462 2.968.424-.415 1.045-.646 1.591-.944 1.568-.836 3.078-1.758 4.395-2.834.691-.633 1.438-1.316 1.562-2.182.048-.726-.783-1.347-1.632-1.467-1.238.173-2.009 1.019-2.919 1.614-.216-.525.364-.894.707-1.28 1.09-1.048 2.189-2.173 3.74-2.813zm-90.313-3.518c2.12-1.034 4.199-2.128 6.346-3.128-.212 1.068-.649 2.305-1.961 2.836-4.69 2.271-9.329 4.61-14.035 6.857.525-.851 1.043-1.711 1.621-2.539 2.653-1.367 5.357-2.681 8.029-4.025v-.001zm204.248-6.652c3.091 1.646 5.64 3.996 7.019 6.747 1.36 2.667 1.348 5.694.254 8.419-.148.314-.467.551-.733.804.476-1.849.64-3.79-.022-5.625-.937-2.906-3.615-5.321-6.872-6.781.162-1.186.198-2.378.354-3.563v-.001zm-74.486 1.195c.531-.514 1.049-1.036 1.631-1.514-.554 1.024-.131 2.137.131 3.175.299.95.587 1.91 1.04 2.822.565.586 1.556.884 2.47.861.425-.001.626-.394.48-.676-.447-1.144-1.028-2.256-1.689-3.333.128-.79.499-1.551.76-2.322.316.023.638.044.961.069.211 1.403 1.138 2.645 1.865 3.904-.03 1.014-.119 2.033-.367 3.03-.187.694-.512 1.498-1.399 1.811-.756.233-1.641.362-2.404.082-1.121-.393-1.917-1.167-2.606-1.941-.436 1.094-1.544 1.962-2.902 2.346-1.118.407-2.477-.019-3.185-.764-.812-.878-.955-2.009-.969-3.064.046-1.014.147-2.057.699-2.988.358-.625.911-1.239 1.763-1.473a4.586 4.586 0 00-.423 4.979c.242.451.738.888 1.401.903 1.006-.04 1.789-.614 2.455-1.158-.016-1.293.057-2.584.059-3.878.048-.292-.064-.643.229-.871zm-167.964-10.5c2.53 1.297 4.543 3.269 5.506 5.539.782 1.834.727 3.853.03 5.697-.093.3-.378.524-.633.744.513-1.741.458-3.628-.463-5.28-.938-1.706-2.659-3.112-4.698-4.022.111-.892.166-1.786.258-2.677v-.001zm81.639-1.936c.573-.562 1.085-1.208 1.846-1.618-.503.604-.291 1.35-.171 2.015.282 1.242.7 2.465 1.195 3.666.156.501.809.715 1.348.908.487.144 1.073.278 1.568.086.312-.217.165-.587.055-.855-.476-1.051-.963-2.106-1.633-3.091l.769-2.292c.335.021.67.039 1.011.056.154 1.411 1.134 2.642 1.84 3.909-.024 1.08-.123 2.169-.418 3.226-.168.623-.532 1.281-1.276 1.595-.855.268-1.873.393-2.708.02-.969-.439-1.744-1.11-2.351-1.841-.487 1.122-1.658 2.01-3.08 2.376-.978.291-2.141-.019-2.809-.632-.851-.699-1.079-1.711-1.161-2.643-.066-1.199.056-2.435.647-3.551a3.337 3.337 0 011.746-1.533c-.786 1.235-1.19 2.671-.75 4.035.194.716.518 1.628 1.524 1.853 1.087.11 1.952-.544 2.652-1.11.131-1.524.049-3.057.156-4.58v.001zm84.165-1.931c3.661-1.253 7.321-2.518 11.065-3.603-.114.673-.423 1.442-1.251 1.762-5.315 1.796-10.653 3.56-15.856 5.554-1.034.452-2.096.916-2.901 1.612.575.501 1.435.689 2.212.915-.01.486-.008.973-.008 1.461-1.1-.211-2.202-.529-3.055-1.136.05-.691.034-1.386.154-2.073.124-.624.929-.917 1.511-1.256 2.579-1.271 5.372-2.24 8.13-3.237l-.001.001zm-164.71-6.063l.15.119c-.331.333-.162.773-.108 1.155.18.824.439 1.64.797 2.428.118.352.581.521.974.638.345.057.903.191 1.045-.173-.236-.854-.803-1.616-1.153-2.435.165-.473.244-.98.527-1.418.191.003.385.009.579.019.19.919.793 1.727 1.227 2.575-.024.872-.059 1.777-.474 2.596-.258.555-1.083.702-1.745.695-.969-.108-1.605-.756-2.178-1.319-.369.822-1.313 1.465-2.413 1.578-.925.038-1.709-.553-1.953-1.226-.322-.89-.286-1.846-.024-2.743.203-.626.601-1.304 1.42-1.545-.646.863-.806 1.924-.444 2.887.141.398.402.896.995.953.659.009 1.148-.388 1.618-.697.122-.985-.025-1.979.129-2.962.238-.424.715-.737 1.03-1.125h.001zm30.331-1.697c.404.086.695.346 1.028.532 2.018 1.314 3.699 3.024 4.5 5.01.75 1.798.704 3.772.036 5.581-.091.313-.343.566-.563.828-.017-.033-.052-.101-.071-.134.488-1.672.415-3.471-.435-5.062-.92-1.742-2.642-3.185-4.721-4.093.054-.888.141-1.777.227-2.663l-.001.001zm18.305-1.551c.513-.987 1.854-1.815 3.253-1.626.699.12 1.188.606 1.437 1.111.489 1.039.561 2.171.39 3.264.858.814 1.791 1.637 2.151 2.692.666 1.386.07 2.867-.497 4.206-.725 1.771-2.103 3.379-2.36 5.262-.09.465.137.973.738 1.134.967-.226 1.117-1.136 1.316-1.798.302-.058.776-.083.881.22.165.837-.299 1.643-.674 2.406-.339.58-.809 1.265-1.679 1.395-.695.101-1.226-.381-1.504-.823-.792-1.271-.542-2.778.12-4.048 1.032-2.022 2.395-4.058 2.269-6.302.004-.953-.502-1.863-1.311-2.558-1.209 2.583-3.164 4.912-5.415 6.996-1.165 1.144-2.838 1.843-4.435 2.54-1.429.586-2.88 1.163-4.402 1.586 2.931-1.669 5.742-3.492 8.175-5.611 2.006-1.782 3.852-3.79 4.596-6.14l-.049-.132c-1.085-.555-2.389-1.044-2.954-2.023-.24-.557-.21-1.183-.046-1.751zm1.087.283c-.28.143-.088.417.141.51.683.315 1.386.607 2.096.884-.018-.566.112-1.269-.514-1.672-.543-.359-1.285-.049-1.723.278zm115.876-1.26c.365-.505.93-1.127 1.768-1.04.889.159 1.759.537 2.305 1.127.278.369.508.932.016 1.257-.259.2-.444.539-.764.64-.447-.462-.794-1.287-1.698-1.263-1.132.33-1.759 1.238-2.098 2.1-.702 1.78-.845 3.657-1.065 5.5-.225.184-.528.287-.798.417 0-1.869-.548-3.87-2.24-5.251-.815-.08-1.784-.156-2.24-.781-.556-.797-.956-1.78-.571-2.678.862-.134 1.561.378 2.146.803 1.55 1.125 2.551 2.614 3.455 4.095.382-1.682.767-3.401 1.783-4.927l.001.001zm-220.401.606c.472-.659.993-1.338 1.812-1.762-1.306 2.229-2.825 4.443-3.31 6.902-.153.804-.158 1.726.493 2.402.609.607 1.717.618 2.579.406.965-.306 1.414-1.126 1.865-1.807.202.004.244.192.341.305-.509 1.58-1 3.294-2.505 4.491-1.399 1.17-4.159.568-4.846-.885-.499-1.045-.333-2.202-.04-3.268.72-2.401 2.082-4.646 3.611-6.783v-.001zm131.274-2.504c2.509 1.357 4.566 3.315 5.526 5.616.476 1.208.65 2.495.466 3.754-.137.917-.322 1.869-.971 2.658-.091-.241-.03-.488.027-.727a6.454 6.454 0 00-1.129-5.375c-.984-1.336-2.44-2.456-4.153-3.196.033-.912.145-1.82.234-2.73zm35.009-1.226c.99.407 1.637 1.149 2.275 1.845 1.555 1.801 2.875 3.824 4.062 5.789.115.26.121.582.203 1.446-.715-.616-1.553-1.211-2.617-1.391-.189.33-.187.684-.026 1.022 1.381 3.354 2.944 6.661 4.282 10.026.853 2.195 1.601 4.449 1.63 6.759.059 2.144-.404 4.286-1.203 6.331-.804 1.921-2.035 3.826-4.089 5.094-1.69 1.086-3.946 1.536-6.097 1.377-2.624-.155-5.11-1.157-6.932-2.645-.972-.733-1.762-1.599-2.502-2.481l.283-.053-.31.03c-1.645-2.193-2.865-4.586-3.569-7.075.063-.323-.714-.295-.636.025-1.003 3.631-2.603 7.212-5.253 10.305-1.548 1.777-3.55 3.363-6.034 4.301-2.707 1.011-5.895 1.077-8.744.43-2.863-.654-5.132-2.443-6.361-4.552-1.782-3.021-2.054-6.441-1.858-9.725.382-2.654 1.22-5.248 2.038-7.834.277-.795.522-1.651.166-2.458l-.453-.187c-.383.198-.777.392-1.075.669-2.098 1.831-3.289 4.171-4.241 6.492a34.029 34.029 0 00-1.658 5.71c-.501 3.054-1.268 6.144-3.043 8.912-.963 1.472-2.41 3-4.589 3.338-2.02.213-4.178-.288-5.657-1.415-1.812-1.34-2.606-3.289-3.084-5.162-.761-3.363-.525-6.81-.047-10.187.32-2.081.776-4.147 1.345-6.194a25.1 25.1 0 01.567-.033c-.753 3.451-1.273 6.954-1.141 10.461.117 1.998.415 4.034 1.44 5.884.697 1.266 1.879 2.445 3.521 2.991 1.552.499 3.466.59 4.919-.156 1.502-.78 2.206-2.173 2.764-3.463 1.098-2.857 1.583-5.828 2.445-8.731.904-2.945 2.204-5.811 3.799-8.567.914-1.607 1.921-3.187 3.213-4.626 1.148-1.282 2.202-2.689 3.831-3.63l.484.019c.299.966-.053 1.965-.107 2.943-.101 1.615-.843 3.131-1.269 4.695-.529 1.79-.982 3.594-1.435 5.396-.701 2.581-1.199 5.304-.318 7.9.666 2.037 2.442 3.833 4.84 4.761 1.559.649 3.308.979 5.063 1.028 2.467.197 5.046-.037 7.252-.977 2.659-1.097 4.541-3.084 5.762-5.208a16.612 16.612 0 002.073-6.735c.026-4.598-.378-9.284-2.365-13.644-.253-.602-.584-1.228-.439-1.873.314-1.773 1.062-3.479 1.939-5.122.056-.188.341-.202.512-.298.939 2.218 1.85 4.451 2.42 6.751.717 2.989 1.13 6.018 1.555 9.039.337 2.156.435 4.346 1.119 6.461.567 1.754 1.45 3.471 2.838 4.924 1.686 1.854 4.217 3.23 7.033 3.756 2.409.443 4.983-.127 7.01-1.191 1.066-.576 2.172-1.545 1.817-2.643-3.374-7.024-6.149-14.216-8.907-21.402-.183-.593-.531-1.161-.588-1.771.358-1.9 1.199-3.722 2.147-5.483v.002zm-94.292 5.904c1.153-2.061 2.305-4.122 3.483-6.174 2.278 4.148 4.132 8.44 5.522 12.827.163.887-.168 1.778-.128 2.669-.795-1.117-1.709-2.178-2.543-3.278.215 2.012.605 4.014.842 6.025a1079.986 1079.986 0 014.195 35.698c1.372-.786 2.419-1.914 3.007-3.169.767-1.412 1.595-2.817 2.716-4.079.421-.454.977-1.035 1.791-.895.461.021.68.412.726.731.203 1.118-.866 2.084-.684 3.194.05.911.95 1.693 2.02 1.968 1.85.529 3.86.292 5.757.08.857-.149 1.926-.277 2.343-.981a37.383 37.383 0 00-1.502-3.343c.802-1.616 1.717-3.197 2.553-4.804.215-.379.36-.798.714-1.117.607 1.837.759 3.744 1.005 5.626.253 3.044-.364 6.203-2.282 8.881-1.034 1.37-2.577 2.616-4.591 3.012-1.755.333-3.684.181-5.275-.513a7.33 7.33 0 01-3.763-3.858 18.622 18.622 0 01-3.978 5.002c.194 2.352.411 4.703.559 7.057.111 2.625-.74 5.197-1.724 7.682-.478 1.068-.948 2.141-1.538 3.175-5.245 6.782-12.179 12.791-20.499 17.277-5.446 2.96-11.47 5.255-17.794 6.762-3.307.759-6.687 1.378-10.126 1.577-3.55.039-7.153-.324-10.471-1.354-3.114-.961-5.834-2.711-7.58-4.972a232.51 232.51 0 01-18.468.788c5.501-1.559 10.946-3.245 16.301-5.1-3.02-12.248 4.167-25.654 9.482-32.799-3.691 6.041-6.079 12.172-6.622 18.398-.302 4.214.08 8.638 2.562 12.451 6.599-2.441 13.023-5.184 19.183-8.263 5.223-2.647 10.268-5.536 14.854-8.847 2.173-1.59 4.286-3.25 6.071-5.123.528-.491.271-1.192.099-1.75a49.743 49.743 0 00-1.307-2.781c-3.122 1-6.447 1.686-9.833 1.674-1.846.042-3.746-.237-5.337-1.006-1.365-.666-2.378-1.759-2.789-2.985-.569-1.609-.322-3.306.019-4.928.541-2.347 1.633-4.695 3.71-6.472 1.458-1.241 3.388-2.196 5.527-2.446 2.42.009 4.698.943 6.424 2.239 2.199 1.649 3.699 3.788 4.852 5.982 2.153-.992 4.222-2.167 5.825-3.692 1.572-1.294 3.19-2.615 5.198-3.484.501-.228 1.365-.479 1.698.052.363.79.017 1.657-.227 2.442-.647 1.144.135 2.445 1.102 3.32 1.346 1.202 3.558 1.318 5.432 1.048-1.964-15.971-3.96-31.94-5.926-47.911-.041-.536-.333-1.025-.585-1.515v.002zm-26.751 49.04c-.963.328-2.167.815-2.31 1.731.226.698 1.262.913 2.04 1.062 2.503.384 5.105.377 7.606-.012-.045-.071-.14-.211-.188-.282-1.304-1.168-2.966-2.174-4.941-2.469-.726-.086-1.496-.25-2.207-.03zm16.391 6.523c.259 3.255-.318 6.545-1.614 9.637-.501 1.074-.918 2.21-1.862 3.105-4.642 4.909-10.623 8.92-16.925 12.441a130.866 130.866 0 01-17.741 8.134c1.059.408 2.17.736 3.326.931 3.095.543 6.291.251 9.391-.103 9.706-1.15 18.847-4.503 26.719-9.084 5.219-3.037 9.974-6.575 14.123-10.513 1.387-1.391 3.095-2.751 3.433-4.582-.331-3.107-.769-6.207-1.134-9.312-2.159.686-4.83.846-6.789-.298-2.378-1.42-3.282-3.843-3.657-6.081-2.05 2.179-4.461 4.155-7.271 5.726l.001-.001zm118.835-59.986c.539-.707 1.053-1.489 1.972-1.935-1.336 2.118-2.699 4.271-3.301 6.609-.234 1.01-.314 2.24.735 2.998.609.235 1.311.375 1.976.19 1.214-.216 1.781-1.215 2.255-2.026.132.326.219.663.078.997-.432 1.407-1.007 2.88-2.307 3.945-1.464 1.24-4.416.527-4.973-1.063-.489-1.443-.042-2.955.495-4.35.78-1.867 1.861-3.649 3.07-5.365zM125.56 154.96c1.298-1.991 2.545-4.002 3.811-6.005 2.056 4.249 3.683 8.628 4.812 13.089.074.812-.206 1.62-.297 2.428-.929-.995-1.487-2.192-2.433-3.184.516 3.351.701 6.728 1.038 10.093.375 4.35.729 8.703 1.081 13.055 2.819-.373 5.352-1.691 7.054-3.489 2.56-2.693 3.696-6.081 4.018-9.398-.021-4.26-.309-8.594-2.001-12.672-.299-.834-.849-1.642-.837-2.525.202-1.643.896-3.219 1.631-4.754.186-.358.308-.814.856-.921.836 2.044 1.7 4.086 2.256 6.191.862 3.298 1.279 6.656 1.759 10 .319 2.024.415 4.081 1.062 6.064.839 2.667 2.541 5.266 5.342 6.962 2.107 1.265 4.799 2.131 7.479 1.795 1.89-.269 3.803-.864 5.126-2.006.598-.506 1.009-1.247.754-1.94-2.706-5.513-4.917-11.168-7.151-16.809a860.738 860.738 0 01-2.261-5.895c-.213-.498.065-1.011.167-1.504.471-1.503 1.079-2.992 1.921-4.39.916.348 1.509 1.036 2.107 1.658 1.802 2.054 3.239 4.292 4.56 6.558-.062.29-.123.58-.173.872-.67-.658-1.53-1.248-2.608-1.415a1.107 1.107 0 00-.015 1.001c1.199 2.869 2.478 5.717 3.698 8.58 1.038 2.552 2.285 6.263 2.214 7.849-.218 2.227-.613 5.179-1.464 7.256-.937 1.844-2.568 4.047-4.788 5.061-1.906.907-4.258 1.047-6.406.713-2.826-.448-5.25-1.894-6.987-3.674-2.44-2.509-3.938-5.524-4.825-8.589l-.533.016c-.83 3.085-2.092 6.122-4.04 8.882-1.748 2.469-4.163 4.802-7.494 5.979.582 7.637 1.191 15.272 1.608 22.916.061 3.77-.131 7.537-.368 11.303-.003.512-.274.986-.475 1.465a112.373 112.373 0 01-2.079 4.873c-.116.27-.266.534-.481.765-.096-7.197-.866-14.376-1.481-21.553a8129.363 8129.363 0 01-1.658-18.962c-2.667-.047-5.413-.664-7.381-2.146-2.293-1.67-3.464-4.078-4.024-6.455-.495-2.105-.599-4.263-.392-6.394.457-2.783 1.357-5.504 2.216-8.224.118-.486.204-.997.065-1.486-.054-.178-.105-.389-.366-.439-.4-.041-.696.196-.967.388-1.496 1.144-2.474 2.624-3.329 4.106-1.619 3.062-2.573 6.325-3.093 9.612-.43 2.168-1.058 4.326-2.086 6.369-.816 1.518-1.835 3.081-3.605 4.033-1.511.824-3.51.723-5.163.25-2.094-.614-3.584-2.099-4.376-3.707-1.376-2.766-1.466-5.792-1.382-8.724.196-3.437.812-6.855 1.763-10.211.178-.03.359-.059.538-.086-.769 3.85-1.395 7.753-1.032 11.655.178 1.691.558 3.399 1.472 4.947.776 1.323 2.139 2.511 3.944 2.943 1.534.374 3.352.344 4.657-.473 1.42-.898 2.092-2.304 2.612-3.638 1.222-3.381 1.681-6.903 2.946-10.275 1.227-3.305 2.897-6.512 4.962-9.545 1.197-1.572 2.492-3.109 3.995-4.51.446-.368.893-.89 1.601-.896.388.197.249.629.259.938-.198 1.521-.217 3.076-.792 4.548-1.051 3.019-1.759 6.105-2.53 9.175-.534 2.389-.677 4.942.478 7.234.851 1.748 2.621 3.167 4.757 3.956 1.16.434 2.415.699 3.685.844-.701-8.527-1.496-17.049-2.221-25.576-.166-1.327-.056-2.696-.709-3.952h-.001zm282.746.033c1.144-2.148 2.202-4.321 3.359-6.464 1.774 4.625 3.506 9.263 4.953 13.959.217.808.5 1.611.607 2.435-.151.652-.402 1.292-.423 1.962a342.079 342.079 0 00-1.909-2.883 1542.802 1542.802 0 002.87 36.022c.337 3.86.83 7.712 1.009 11.579.328 7.164.012 14.484-2.739 21.37-1.033 2.489-2.349 4.915-4.02 7.18-2.246 2.928-5.581 5.237-9.249 7.01-6.532 3.11-14.008 4.728-21.473 5.726-.423.122-.594-.266-.834-.443 6.66-2.537 13.063-5.519 19.039-8.964 2.989-1.771 5.914-3.637 8.429-5.83 2.881-2.568 5.055-5.659 6.043-9.014 1.083-3.374.709-6.884.472-10.318-.625-7.915-1.397-15.823-2.056-23.737-1.015-12.195-2.037-24.393-3.053-36.588-.215-.857-.891-1.591-1.203-2.425-.084-.205.11-.389.177-.577h.001zm-16.87 2.093c3.893-3.233 7.667-6.555 11.407-9.902.166 3.008-1.789 5.773-3.972 8.122-1.169 1.366-2.817 2.388-4.299 3.524a67.19 67.19 0 00-2.081 1.563c.196.804.495 1.596.605 2.412-.057.758-.211 1.511-.325 2.266-.839-1.042-1.439-2.205-2.399-3.181.423 3.411.629 6.837.916 10.257.75 10.042 1.437 20.086 2.084 30.132-.038.259.25.423.434.607 2.769 2.436 5.527 4.882 8.12 7.439 2.036 2.144 3.964 4.361 5.599 6.715 2.142 3.081 3.837 6.419 4.338 9.936.272 2.213.137 4.496-.773 6.614-1.603-5.805-4.554-11.083-7.992-14.744-2.893-3.119-6.058-6.175-9.252-9.103.222 3.582.445 7.164.618 10.747.17 4.622-.046 9.245-.293 13.862.002.875-.497 1.675-.754 2.511-.744 1.877-1.343 3.798-2.297 5.617-.153-4.265-.335-8.534-.661-12.794-.584-7.631-1.199-15.259-1.751-22.889-.081-.601-.04-1.214-.184-1.805-2.102-1.944-4.37-3.772-6.565-5.649-3.866-3.195-7.772-6.361-11.826-9.406.769 7.971 1.564 15.941 2.284 23.915.308 3.62.716 7.241.759 10.872.056 3.158.015 6.317-.074 9.474.012 1.992.046 4.051-.847 5.945-1.321 2.347-3.691 4.306-6.548 5.515-2.23.937-4.752 1.436-7.276 1.452-1.704.03-3.398-.329-4.903-.944-2.636-1.177-4.517-3.183-5.727-5.342a16.077 16.077 0 01-1.748-4.664c-.186-.704-.384-1.517-1.178-1.957-.632-.337-1.387-.068-1.998.158-1.487.627-2.918 1.383-3.993 2.423-3.503 3.335-5.168 7.591-6.211 11.779-.51 1.807-1.319 3.604-2.739 5.096-1.03 1.063-2.5 2.081-4.241 2.108-1.363.021-2.678-.438-3.894-.914-2.691-1.123-4.559-3.183-5.67-5.382-.297-.588-.66-1.077-1.243-3.158-.628-2.245-.845-5.655-.602-9.125.118-.336-.322-.458-.563-.645-.959-.65-1.352-1.683-1.338-2.656-.027-3.571.628-7.203 2.527-10.47 1.54-2.694 3.847-5.046 6.093-7.39.211-.253.584-.454.687-.75-1.399-1.263-2.876-2.474-4.368-3.668-.851-.779-1.886-1.412-2.724-2.198-3.148-2.7-6.242-5.437-9.336-8.177.295 4.007.52 8.018.773 12.028.192 3.714.518 7.425.451 11.144.013 3.314-.175 6.626-.346 9.936-.01.825-.43 1.594-.697 2.38-.75 1.938-1.427 3.899-2.337 5.796-.17-1.569-.067-3.149-.193-4.719-.344-7.835-1.119-15.653-1.669-23.48-.468-5.988-.881-11.98-1.38-17.965-2.061-2.024-4.237-3.983-6.275-6.026-2.387-2.383-4.772-4.782-6.77-7.383-2.869-4.084-6.089-8.05-10.065-11.519-.227-.169-.156-.42-.154-.636.137-2.245.245-4.491.386-6.736 2.83 1.458 5.529 3.074 8.124 4.786 2.01 1.372 3.923 2.844 5.55 4.508.84.786 1.614 1.789 1.332 2.863-.955-.3-1.943-.54-2.847-.928a4.143 4.143 0 00-1.166-.307c-.06.628.481 1.123.886 1.617 2.949 3.417 6.024 6.762 9.18 10.06.406.424.853.827 1.165 1.303-.2-3.867-.573-7.73-.838-11.596-.447-5.969-.906-11.938-1.353-17.907-.082-.892-.026-1.812-.479-2.651-.219-.334.104-.64.283-.929a197.13 197.13 0 003.158-5.011c.049-.117.287-.42.36-.129a68.604 68.604 0 014.581 12.337c.345 1.004-.08 2.028-.207 3.033-.727-1.137-1.552-2.232-2.359-3.334 1.034 10.483 1.633 20.991 2.408 31.486.523.696 1.326 1.247 1.966 1.883 6.176 5.636 12.589 11.103 18.998 16.571a1564.2 1564.2 0 0114.399-12.471c.209-.154.352-.341.277-.575-1.452-13.049-2.906-26.1-4.36-39.149-.185-1.32-.135-2.678-.762-3.93 1.19-2.023 2.494-4.005 3.676-6.032.647 1.064 1.093 2.201 1.603 3.313 1.199 2.769 2.236 5.584 3.056 8.438.172.643.454 1.292.341 1.957-.085.601-.191 1.201-.272 1.803-.796-1.063-1.559-2.141-2.36-3.202 1.137 10.51 2.292 23.744 3.324 33.496 5.004-4.206 9.969-8.444 14.996-12.632.551-.497 1.18-.941 1.688-1.469-2.446-2.6-4.728-5.295-7.005-7.989-.791-.887-1.406-1.86-2.162-2.764-1.591-1.953-3.217-3.927-5.402-5.5-.19-2.537-.293-5.079-.43-7.619 5.132 3.548 10.345 7.027 15.332 10.705.478.339.858.754 1.125 1.218-.45-3.968-.86-7.938-1.285-11.908-.052-.364-.036-.744-.229-1.084-.127-.35-.479-.723-.194-1.08 1.18-1.92 2.294-3.866 3.461-5.792 2.042 3.825 3.633 7.798 4.893 11.828.13.566.442 1.122.347 1.706-.093.645-.149 1.292-.242 1.937-.721-.949-1.443-1.898-2.156-2.848a6.413 6.413 0 01-.345-.455c.651 4.541 1.081 9.099 1.589 13.651 3.76-3.157 7.62-6.237 11.509-9.295 1.732-1.297 3.528-2.541 5.188-3.897-.157-1.762-.246-3.527-.421-5.288-.032-.559-.682-1.122-.226-1.657a167.817 167.817 0 003.536-5.602c1.342 2.44 2.248 5.019 3.219 7.562v.001zm-22.391 22.119c.059.712.135 1.424.217 2.135a110.507 110.507 0 003.754 3.527c4.92 4.394 10.01 8.667 15.002 13.009-.773-10.739-1.64-21.477-2.408-32.217a559.323 559.323 0 00-16.565 13.546zm-10.627-9.741a99.51 99.51 0 004.972 5.732c-.141-1.722-.352-3.441-.543-5.16-.095.152-.198.305-.277.46-1.19-.687-2.642-1.226-4.152-1.032zm-10.114 27.779c-1.02.95-2.157 1.827-3.116 2.815.227 3.045.718 6.082 1.02 9.126.149 5.031-.908 10.372-4.817 14.489.112-.655.059-1.318.069-1.978-.006-2.257.114-4.515.101-6.774-.013-2.164.036-2.016-.071-6.492-.045-1.869-.336-3.352-.527-4.667-1.365 1.141-2.665 2.331-4.026 3.476-2.678 2.367-5.525 4.608-8.27 6.926 2.788 2.376 4.537 5.504 4.989 8.722.455 3.423-.623 7.064-3.462 9.724-2.505 2.333-6.099 3.806-9.831 4.484-1.751.307-3.623.518-5.36.054a43.17 43.17 0 00.853 4.288c.624 2.391 1.436 4.805 3.049 6.912.862 1.077 2.044 2.12 3.67 2.437 1.737.334 3.505-.356 4.728-1.302 1.088-.772 1.593-1.893 2.052-2.959 1.38-3.14 1.846-6.513 3.671-9.533 1.281-2.396 2.908-4.721 5.257-6.567 1.219-1.003 2.62-1.858 4.087-2.62 1.01-.48 2.234-.878 3.424-.598 1.132.263 1.895 1.054 2.419 1.85 1.192 1.794 1.502 3.845 2.467 5.71.706 1.54 1.642 3.105 3.306 4.144 1.681 1.05 3.896 1.372 5.992 1.302 3.658-.124 9.674-2.483 9.979-3.149.317-.691-.519-5.927-.845-8.887-1.592-14.461-3.116-28.927-4.673-43.389-.053-.397-.504-.667-.727-1.004-5.229 4.419-10.297 8.956-15.407 13.46h-.001zm-23.837 20.748c-1.095 1-2.129 2.044-3.158 3.086-1.959 2.09-3.919 4.204-5.369 6.548-.366.595-.699 1.337-.279 1.97.497.647 1.559.744 2.431.745 3.849-.122 7.438-1.485 10.564-3.187 1.045-.408 2.027-1.311 1.633-2.291-.517-1.318-1.498-2.481-2.457-3.621a49.972 49.972 0 00-3.161-3.262l-.204.013v-.001z"/></svg>