<svg xmlns="http://www.w3.org/2000/svg" shape-rendering="geometricPrecision" text-rendering="geometricPrecision" image-rendering="optimizeQuality" fill-rule="evenodd" clip-rule="evenodd" viewBox="0 0 512 512"><g fill-rule="nonzero"><path fill="#999" d="M256 0c70.68 0 134.69 28.66 181.01 74.99C483.34 121.31 512 185.32 512 256c0 70.68-28.66 134.69-74.99 181.01C390.69 483.34 326.68 512 256 512c-70.68 0-134.69-28.66-181.01-74.99C28.66 390.69 0 326.68 0 256c0-70.68 28.66-134.69 74.99-181.01C121.31 28.66 185.32 0 256 0z"/><path fill="#fff" d="M256 19.48c65.29 0 124.46 26.48 167.25 69.27l1.09 1.18c42.14 42.72 68.17 101.37 68.17 166.06 0 65.31-26.49 124.46-69.28 167.25l-1.19 1.09c-42.72 42.16-101.4 68.19-166.04 68.19-65.23 0-124.38-26.51-167.18-69.33-42.84-42.74-69.34-101.89-69.34-167.2 0-65.31 26.48-124.45 69.27-167.24C131.54 45.96 190.69 19.48 256 19.48z"/><path fill="#B22234" d="M256 39.59c39.48 0 76.49 10.58 108.37 29.04H147.63C179.51 50.17 216.52 39.59 256 39.59zm155.84 66.28c9.16 9.48 17.42 19.82 24.72 30.85H75.43c7.29-11.09 15.59-21.46 24.72-30.85h311.69zm44.41 67.97c4.1 9.97 7.46 20.28 10.04 30.92H45.71c2.61-10.62 6.03-20.9 10.04-30.92h400.5zm15.68 68.08c.3 4.68.47 9.37.47 14.07 0 5.67-.22 11.3-.65 16.85H40.25c-.42-5.59-.65-11.26-.65-16.85 0-4.73.17-9.42.47-14.07h431.86zm-6.32 68.06a212.979 212.979 0 0 1-10.52 30.94H56.91c-4.25-10.02-7.83-20.39-10.52-30.94h419.22zm-30.9 68.06c-7.63 11.14-16.25 21.56-25.78 31.07H103.07c-9.5-9.51-18.15-19.93-25.78-31.07h357.42zm-75.27 68.08c-30.86 16.77-66.16 26.29-103.44 26.29-37.47 0-72.72-9.53-103.44-26.29h206.88z"/><path fill="#3C3B6E" d="M268.16 39.94v234.41H40.39c-.53-6.07-.79-12.16-.79-18.36 0-119.51 96.88-216.4 216.4-216.4 4.08 0 8.14.13 12.16.35z"/><path fill="#fff" d="m50.81 187.06.98 3.06-1.6-1.18.62-1.88zm189.29 49.91 8.01 24.66-20.96-15.25h25.89l-20.97 15.25 8.03-24.66zm0-47.66 8.01 24.62-20.96-15.22h25.89l-20.97 15.22 8.03-24.62zm0-47.69 8.01 24.65-20.96-15.26h25.89l-20.97 15.26 8.03-24.65zm0-47.66 8.01 24.62-20.96-15.23h25.89l-20.97 15.23 8.03-24.62zm0-47.67 8.01 24.63-20.96-15.24h25.89l-20.97 15.24 8.03-24.63zm-28.08 166.85 8.03 24.64-20.98-15.25h25.89l-20.86 15.25 7.92-24.64zm0-47.67 8.03 24.65-20.98-15.26h25.89l-20.86 15.26 7.92-24.65zm0-47.66 8.03 24.62-20.98-15.23h25.89l-20.86 15.23 7.92-24.62zm0-47.7 8.03 24.65-20.98-15.25h25.89L204.1 94.76l7.92-24.65zm-27.97 166.86 8.03 24.66-20.98-15.25h25.91l-20.97 15.25 8.01-24.66zm0-47.66 8.03 24.62-20.98-15.22h25.91l-20.97 15.22 8.01-24.62zm0-47.69 8.03 24.65-20.98-15.26h25.91l-20.97 15.26 8.01-24.65zm0-47.66 8.03 24.62-20.98-15.23h25.91l-20.97 15.23 8.01-24.62zm1.64-42.68 6.39 19.64-19.93-14.48 1.86-.76h23l-20.97 15.24 5.97-18.34 3.68-1.3zm-29.71 161.86 8.01 24.64-20.97-15.25h25.91l-20.98 15.25 8.03-24.64zm0-47.67 8.01 24.65-20.97-15.26h25.91l-20.98 15.26 8.03-24.65zm0-47.66 8.01 24.62-20.97-15.23h25.91l-20.98 15.23 8.03-24.62zm0-47.7 8.01 24.65-20.97-15.25h25.91l-20.98 15.25 8.03-24.65zm-27.97 166.86 7.92 24.66-20.86-15.25h25.89l-20.98 15.25 8.03-24.66zm0-47.66 7.92 24.62-20.86-15.22h25.89l-20.98 15.22 8.03-24.62zm0-47.69 7.92 24.65-20.86-15.26h25.89l-20.98 15.26 8.03-24.65zm0-47.66 7.92 24.62-20.86-15.23h25.89l-20.98 15.23 8.03-24.62zM99.93 213.14l8.03 24.64-20.97-15.25h25.9l-20.97 15.25 8.01-24.64zm0-47.67 8.03 24.65-20.97-15.26h25.9l-20.97 15.26 8.01-24.65zm0-47.66 8.03 24.62-20.97-15.23h25.9l-20.97 15.23 8.01-24.62zM71.87 236.97l8.01 24.66-20.98-15.25h26.02l-21.08 15.25 8.03-24.66zm0-47.66 8.01 24.62-20.98-15.22h26.02l-21.08 15.22 8.03-24.62zm.14-47.26 7.87 24.22-15.36-11.17 2.2-4.09h18.2l-21.08 15.26 7.6-23.32.57-.9zM43.9 213.14l7.89 24.64-10.63-7.77-.47 4.27 16.15-11.75H42.16c.48-3.02 1.02-6.02 1.62-8.99l.12-.4zm11.44-38.28h1.5l-2.14 1.57.64-1.57z"/></g></svg>